<svg width="20" height="20" fill="none" xmlns="http://www.w3.org/2000/svg"><path opacity=".12" d="M2.5 6.5c0-1.4 0-2.1.27-2.63a2.5 2.5 0 0 1 1.1-1.1C4.4 2.5 5.1 2.5 6.5 2.5h7c1.4 0 2.1 0 2.64.27.47.24.85.62 1.09 1.1.27.53.27 1.23.27 2.63v7c0 1.4 0 2.1-.27 2.64a2.5 2.5 0 0 1-1.1 1.09c-.53.27-1.23.27-2.63.27h-7c-1.4 0-2.1 0-2.63-.27a2.5 2.5 0 0 1-1.1-1.1c-.27-.53-.27-1.23-.27-2.63v-7Z" fill="#50AF62"/><path d="M14.17 7.5h1a1 1 0 0 0-1-1v1ZM1.79 13.46a1 1 0 1 0 1.42 1.41l-1.42-1.41Zm5.35-2.99.7-.7-.7.7Zm-.34-.28.3-.95-.3.95Zm-.26 0-.31-.95.3.95Zm2.76 2.12.3.95-.3-.95Zm-.6-.28-.71.7.7-.7Zm.34.28-.31.95.3-.95Zm1.8-5.81a1 1 0 1 0 0 2v-2Zm2.33 4.33a1 1 0 1 0 2 0h-2Zm-9.3 6.4-.46.89.46-.9Zm-1.1-1.1-.89.46.9-.45Zm14.46 0 .89.46-.9-.45Zm-1.1 1.1.46.89-.45-.9Zm0-14.46.46-.89-.45.9Zm1.1 1.1.89-.46-.9.46ZM3.87 2.77l-.46-.89.46.9Zm-1.1 1.1-.89-.46.9.46Zm10.69 2.92-4.53 4.53 1.42 1.42 4.52-4.53-1.41-1.42ZM9.4 11.32 7.85 9.76l-1.42 1.42L8 12.74l1.41-1.42ZM5.5 9.76l-3.7 3.7 1.42 1.41 3.7-3.7-1.42-1.4Zm2.36 0-.26-.24c-.1-.09-.26-.2-.49-.28l-.61 1.9a.68.68 0 0 1-.15-.06l-.05-.04.04.04.1.1 1.42-1.42Zm-.95 1.42a8.77 8.77 0 0 1 .14-.14l-.05.04a.68.68 0 0 1-.14.06l-.62-1.9c-.22.07-.38.2-.48.28-.1.08-.2.17-.26.24l1.41 1.42Zm.2-1.94c-.28-.1-.59-.1-.87 0l.62 1.9a.58.58 0 0 1-.36 0l.61-1.9Zm1.83 2.08a8.68 8.68 0 0 1-.14.14l.05-.04a.68.68 0 0 1 .15-.06l.61 1.9c.23-.07.39-.2.49-.28l.26-.24-1.42-1.42ZM8 12.74l.26.24c.1.09.26.2.48.28l.62-1.9.14.06.05.04a8.77 8.77 0 0 1-.14-.13L8 12.72Zm1-1.38a.58.58 0 0 1 .36 0l-.62 1.9c.28.1.59.1.87 0L9 11.36Zm1.84-2.86h3.34v-2h-3.34v2Zm2.34-1v3.33h2V7.5h-2Zm-6.67-4h7v-2h-7v2Zm10 3v7h2v-7h-2Zm-3 10h-7v2h7v-2Zm-10-3v-7h-2v7h2Zm3 3c-.72 0-1.2 0-1.56-.03a1.64 1.64 0 0 1-.62-.13l-.9 1.78c.42.22.88.3 1.36.34.46.04 1.04.04 1.72.04v-2Zm-5-3c0 .68 0 1.26.04 1.72.04.48.12.94.34 1.37l1.78-.9c-.05-.11-.1-.27-.13-.63-.03-.37-.03-.84-.03-1.56h-2Zm2.82 2.84a1.5 1.5 0 0 1-.66-.66l-1.78.9c.34.67.87 1.2 1.53 1.54l.9-1.78ZM16.5 13.5c0 .72 0 1.2-.03 1.56-.03.36-.08.52-.13.62l1.78.9c.22-.42.3-.88.34-1.36.04-.46.04-1.04.04-1.72h-2Zm-3 5c.68 0 1.26 0 1.72-.04.48-.04.94-.12 1.37-.34l-.9-1.78c-.11.05-.27.1-.63.13-.37.03-.84.03-1.56.03v2Zm2.84-2.82a1.5 1.5 0 0 1-.66.66l.9 1.78a3.5 3.5 0 0 0 1.54-1.53l-1.78-.9ZM13.5 3.5c.72 0 1.2 0 1.56.03.36.03.52.08.62.13l.9-1.78c-.42-.22-.88-.3-1.36-.34-.46-.04-1.04-.04-1.72-.04v2Zm5 3c0-.68 0-1.26-.04-1.72a3.57 3.57 0 0 0-.34-1.37l-1.78.9c.05.11.1.27.13.63.03.37.03.84.03 1.56h2Zm-2.82-2.84c.28.15.51.38.66.66l1.78-.9a3.5 3.5 0 0 0-1.53-1.54l-.9 1.78ZM6.5 1.5c-.68 0-1.26 0-1.72.04-.48.04-.94.12-1.37.34l.9 1.78c.11-.05.27-.1.63-.13.37-.03.84-.03 1.56-.03v-2Zm-3 5c0-.72 0-1.2.03-1.56.03-.36.08-.52.13-.62l-1.78-.9c-.22.42-.3.88-.34 1.36-.04.46-.04 1.04-.04 1.72h2Zm-.09-4.62a3.5 3.5 0 0 0-1.53 1.53l1.78.9c.15-.27.38-.5.66-.65l-.9-1.78Z" fill="#50AF62"/></svg>
