<svg width="24" height="24" fill="none" xmlns="http://www.w3.org/2000/svg"><path opacity=".12" d="M2 6.2c0-1.12 0-1.68.22-2.1a2 2 0 0 1 .87-.88C3.52 3 4.08 3 5.2 3h.4c2.24 0 3.36 0 4.22.44a4 4 0 0 1 1.74 1.74c.44.86.44 1.98.44 4.22V21l-.1-.15c-.7-1.04-1.04-1.56-1.5-1.94a4 4 0 0 0-1.38-.74C8.45 18 7.82 18 6.57 18H5.2c-1.12 0-1.68 0-2.1-.22a2 2 0 0 1-.88-.87C2 16.48 2 15.92 2 14.8V6.2Z" fill="#9AA495"/><path d="m12 21-.83.55a1 1 0 0 0 1.66 0L12 21Zm-.1-.15-.83.55.83-.55Zm-1.5-1.94-.64.77.64-.77Zm-1.38-.74-.29.96.3-.96Zm-6.8-1.26.89-.46-.9.46Zm.87.87.46-.89-.46.9ZM9.82 3.44l-.46.89.46-.9Zm1.74 1.74-.89.46.9-.46ZM3.1 3.22l.46.89-.46-.9Zm-.87.87.89.46-.9-.46Zm9.88 16.76.83.55-.83-.55Zm1.5-1.94.64.77-.64-.77Zm1.38-.74.29.96-.3-.96Zm6.8-1.26-.89-.46.9.46Zm-.87.87-.46-.89.46.9ZM14.18 3.44l.46.89-.46-.9Zm-1.74 1.74.89.46-.9-.46Zm8.47-1.96-.46.89.46-.9Zm.87.87-.89.46.9-.46ZM5.2 4h.4V2h-.4v2ZM3 14.8V6.2H1v8.6h2Zm9.83 5.65-.1-.15-1.66 1.1.1.15 1.66-1.1ZM6.57 17H5.2v2h1.37v-2Zm6.16 3.3c-.66-1-1.1-1.67-1.7-2.16l-1.27 1.54c.32.26.58.63 1.3 1.72l1.67-1.1ZM6.57 19c1.32 0 1.77.01 2.16.13l.58-1.91c-.74-.23-1.55-.22-2.74-.22v2Zm4.46-.86a5 5 0 0 0-1.72-.92l-.58 1.91a3 3 0 0 1 1.03.55l1.27-1.54ZM1 14.8c0 .54 0 1.01.03 1.4.03.39.1.78.3 1.16l1.78-.9a1.14 1.14 0 0 1-.09-.43A17 17 0 0 1 3 14.8H1ZM5.2 17c-.58 0-.95 0-1.23-.02a1.14 1.14 0 0 1-.42-.09l-.91 1.78c.38.2.77.27 1.16.3.39.03.86.03 1.4.03v-2Zm-3.87.36a3 3 0 0 0 1.3 1.31l.92-1.78a1 1 0 0 1-.44-.44l-1.78.91ZM5.6 4c1.14 0 1.93 0 2.55.05.6.05.95.14 1.21.28l.91-1.79c-.6-.3-1.23-.42-1.96-.48C7.59 2 6.7 2 5.6 2v2ZM13 9.4c0-1.1 0-2-.06-2.7a5.13 5.13 0 0 0-.48-1.97l-1.79.9c.14.27.23.62.28 1.22.05.62.05 1.41.05 2.55h2ZM9.36 4.33a3 3 0 0 1 1.31 1.3l1.79-.9a5 5 0 0 0-2.19-2.19l-.9 1.79ZM5.2 2c-.54 0-1.01 0-1.4.03-.39.03-.78.1-1.16.3l.9 1.78c.06-.03.16-.06.43-.09A17 17 0 0 1 5.2 4V2ZM3 6.2c0-.58 0-.95.02-1.23.03-.27.06-.37.09-.42l-1.78-.91c-.2.38-.27.77-.3 1.16C1 5.2 1 5.66 1 6.2h2Zm-.36-3.87a3 3 0 0 0-1.31 1.3l1.78.92a1 1 0 0 1 .44-.44l-.91-1.78ZM18.8 2h-.4v2h.4V2ZM11 9.4V21h2V9.4h-2Zm12 5.4V6.2h-2v8.6h2Zm-10.17 6.75.1-.15-1.66-1.1-.1.15 1.66 1.1Zm4.6-2.55h1.37v-2h-1.37v2Zm-4.5 2.4c.73-1.09.99-1.46 1.3-1.72l-1.26-1.54c-.6.5-1.04 1.17-1.7 2.16l1.66 1.1Zm4.5-4.4c-1.2 0-2-.01-2.74.22l.58 1.91c.4-.12.84-.13 2.16-.13v-2Zm-3.2 2.68a3 3 0 0 1 1.04-.55l-.58-1.91a5 5 0 0 0-1.72.92l1.27 1.54ZM21 14.8c0 .58 0 .95-.02 1.23-.03.27-.06.37-.09.42l1.78.91c.2-.38.27-.77.3-1.16.03-.39.03-.86.03-1.4h-2ZM18.8 19c.54 0 1.01 0 1.4-.03.39-.03.78-.1 1.16-.3l-.9-1.78c-.06.03-.16.06-.43.09-.28.02-.65.02-1.23.02v2Zm2.1-2.55a1 1 0 0 1-.45.44l.91 1.78a3 3 0 0 0 1.31-1.3l-1.78-.92ZM18.4 2c-1.1 0-2 0-2.7.06-.74.06-1.38.18-1.97.48l.9 1.79a3.2 3.2 0 0 1 1.22-.28C16.47 4 17.26 4 18.4 4V2ZM13 9.4c0-1.14 0-1.93.05-2.55.05-.6.14-.95.28-1.21l-1.79-.91c-.3.6-.42 1.23-.48 1.96C11 7.41 11 8.3 11 9.4h2Zm.73-6.86a5 5 0 0 0-2.19 2.19l1.79.9a3 3 0 0 1 1.3-1.3l-.9-1.79ZM18.8 4c.58 0 .95 0 1.23.02.27.03.37.06.42.09l.91-1.78c-.38-.2-.77-.27-1.16-.3C19.8 2 19.34 2 18.8 2v2ZM23 6.2c0-.54 0-1.01-.03-1.4-.03-.39-.1-.78-.3-1.16l-1.78.9c.03.06.06.16.09.43.02.28.02.65.02 1.23h2Zm-2.55-2.1a1 1 0 0 1 .44.45l1.78-.91a3 3 0 0 0-1.3-1.31l-.92 1.78Z" fill="#9AA495"/></svg>
