<svg width="24" height="24" fill="none" xmlns="http://www.w3.org/2000/svg"><path opacity=".12" d="M13.551 5h-3.102c-2.625 0-3.9374 0-4.9675.4974a5 5 0 0 0-2.1621 2.0132c-.5696.9921-.6631 2.3012-.8501 4.9194l-.246 3.4445C2.1026 17.5634 3.4403 19 5.1334 19c.8659 0 1.687-.3846 2.2413-1.0498L7.75 17.5c.3432-.4118.5147-.6177.7101-.7841a3.0001 3.0001 0 0 1 1.4355-.6723C10.1485 16 10.4165 16 10.9526 16h2.0948c.5361 0 .8041 0 1.057.0436a3.0002 3.0002 0 0 1 1.4355.6723c.1954.1664.367.3723.7101.7841l.3752.4502A2.9174 2.9174 0 0 0 18.8665 19c1.6933 0 3.0309-1.4366 2.9102-3.1255l-.246-3.4445c-.187-2.6182-.2805-3.9273-.8501-4.9194a4.9992 4.9992 0 0 0-2.1621-2.0132C17.4884 5 16.1759 5 13.551 5Z" fill="#50AF62"/><path d="m21.5307 12.43-.9974.0713.9974-.0713Zm.246 3.4445.9975-.0712-.9975.0712Zm-5.1515 2.0757-.7683.6402.7683-.6402ZM16.25 17.5l.7682-.6402-.7682.6402Zm-8.5 0 .7682.6402L7.75 17.5Zm-.3752.4502-.7682-.6402.7682.6402Zm-5.1515-2.0757-.9975-.0712.9975.0712Zm.246-3.4445.9974.0713-.9974-.0713Zm7.4263 3.6136.1699.9855-.1699-.9855Zm-1.4355.6723.6483.7614-.6483-.7614Zm7.0798 0-.6483.7614.6483-.7614Zm-1.4355-.6723-.1699.9855.1699-.9855Zm4.4141-10.5462.4349-.9005-.4349.9005Zm2.1621 2.0132.8673-.4979-.8673.4979ZM5.4815 5.4974l.4348.9005-.4348-.9005ZM3.3194 7.5106l-.8673-.4979.8673.4979ZM6 10c-.5523 0-1 .4477-1 1s.4477 1 1 1v-2Zm4 2c.5523 0 1-.4477 1-1s-.4477-1-1-1v2ZM9 9c0-.5523-.4477-1-1-1s-1 .4477-1 1h2Zm-2 4c0 .5523.4477 1 1 1s1-.4477 1-1H7Zm8-2c-.5523 0-1 .4477-1 1s.4477 1 1 1v-2Zm.01 2c.5523 0 1-.4477 1-1s-.4477-1-1-1v2ZM18 9c-.5523 0-1 .4477-1 1s.4477 1 1 1V9Zm.01 2c.5523 0 1-.4477 1-1s-.4477-1-1-1v2Zm-7.561-5h3.102V4h-3.102v2Zm10.0843 6.5013.246 3.4445 1.9949-.1425-.246-3.4445-1.9949.1425ZM17.3934 17.31l-.3752-.4502-1.5364 1.2804.3751.4502 1.5365-1.2804ZM13.0474 15h-2.0948v2h2.0948v-2Zm-6.0656 1.8598-.3752.4502 1.5365 1.2804.3751-.4502-1.5364-1.2804Zm-3.761-.914.246-3.4445-1.995-.1425-.246 3.4445 1.995.1425ZM5.1334 18c-1.113 0-1.992-.9442-1.9128-2.0542l-1.995-.1425C1.0639 18.071 2.86 20 5.1336 20v-2Zm1.4731-.69c-.3643.4372-.904.69-1.4731.69v2a3.9176 3.9176 0 0 0 3.0096-1.4096L6.6066 17.31Zm4.346-2.31c-.5013 0-.8699-.0034-1.2268.0581l.3397 1.971c.1488-.0257.3163-.0291.8871-.0291v-2Zm-2.4344 3.1402c.3654-.4385.4752-.565.5902-.6629l-1.2966-1.5227c-.2758.2348-.5091.5201-.83.9052l1.5364 1.2804Zm1.2076-3.0821a4.0002 4.0002 0 0 0-1.914.8965l1.2966 1.5227a2 2 0 0 1 .9571-.4482l-.3397-1.971Zm7.2924 1.8017c-.3209-.3851-.5542-.6704-.83-.9052l-1.2966 1.5227c.1149.0979.2248.2244.5902.6629l1.5364-1.2804ZM13.0474 17c.5708 0 .7383.0034.8871.0291l.3397-1.971c-.3569-.0615-.7255-.0581-1.2268-.0581v2Zm3.1408-1.0454a4.0003 4.0003 0 0 0-1.914-.8965l-.3397 1.971c.3535.0609.684.2157.9571.4482l1.2966-1.5227ZM18.8665 18a1.9175 1.9175 0 0 1-1.4731-.69l-1.5365 1.2804A3.9178 3.9178 0 0 0 18.8665 20v-2Zm1.9128-2.0542c.0793 1.11-.7999 2.0542-1.9128 2.0542v2c2.2736 0 4.0697-1.929 3.9077-4.1967l-1.9949.1425ZM13.551 6c1.3284 0 2.2665.0007 3.0029.059.7241.0574 1.1717.166 1.5298.339l.8697-1.801c-.6721-.3246-1.3958-.4647-2.2416-.5317C15.8782 3.9993 14.8476 4 13.551 4v2Zm8.9772 6.3588c-.0924-1.2933-.1651-2.3213-.2904-3.148-.127-.839-.3184-1.5509-.6899-2.198l-1.7345.9957c.198.3449.3382.7836.447 1.5018.1107.7303.1782 1.666.2729 2.991l1.9949-.1425Zm-4.4445-5.9609a4.0003 4.0003 0 0 1 1.7297 1.6106l1.7345-.9958a6.0002 6.0002 0 0 0-2.5945-2.4158l-.8697 1.801ZM10.449 4c-1.2966 0-2.3272-.0007-3.1608.0653-.8458.067-1.5695.2071-2.2416.5316l.8697 1.801c.3581-.1729.8057-.2815 1.5299-.3388C8.1824 6.0007 9.1205 6 10.449 6V4Zm-6.9823 8.5013c.0947-1.325.1623-2.2607.2729-2.991.1088-.7182.249-1.157.447-1.5018l-1.7345-.9958c-.3715.6472-.5629 1.3591-.69 2.198-.1252.8268-.1979 1.8548-.2903 3.1481l1.995.1425Zm1.58-7.9044A6 6 0 0 0 2.452 7.0127l1.7345.9958a4 4 0 0 1 1.7297-1.6106l-.8697-1.801ZM6 12h4v-2H6v2Zm1-3v4h2V9H7Zm8 4h.01v-2H15v2Zm3-2h.01V9H18v2Z" fill="#50AF62"/></svg>
