<svg width="17" height="22" viewBox="0 0 17 22" fill="none" xmlns="http://www.w3.org/2000/svg">
<path d="M3.48752 19.3417L4.04222 20.1737H4.04222L3.48752 19.3417ZM1.9404 20.1297L1.8808 21.1279L1.9404 20.1297ZM1.20249 19.7348L2 19.1315L1.20249 19.7348ZM14.0031 9.66872L13.4484 10.5008L14.0031 9.66872ZM15.1209 10.6169L14.1972 11L15.1209 10.6169ZM14.0031 12.3313L13.4484 11.4992L14.0031 12.3313ZM15.1209 11.3831L14.1972 11L15.1209 11.3831ZM3.48752 2.65835L4.04222 1.8263L3.48752 2.65835ZM1.9404 1.87029L1.8808 0.872071L1.9404 1.87029ZM1.20249 2.26521L2 2.86852L1.20249 2.26521ZM2.93282 3.4904L13.4484 10.5008L14.5578 8.83667L4.04222 1.8263L2.93282 3.4904ZM13.4484 11.4992L2.93282 18.5096L4.04222 20.1737L14.5578 13.1633L13.4484 11.4992ZM2 18.0104V3.98963H0V18.0104H2ZM2.93282 18.5096C2.51226 18.79 2.25412 18.9609 2.06011 19.066C1.85719 19.176 1.87866 19.1242 2 19.1315L1.8808 21.1279C2.33717 21.1552 2.72818 20.9788 3.01304 20.8244C3.30682 20.6652 3.65472 20.432 4.04222 20.1737L2.93282 18.5096ZM0 18.0104C0 18.4761 -0.00100589 18.8949 0.0294825 19.2276C0.0590458 19.5503 0.129157 19.9735 0.40498 20.3381L2 19.1315C2.07333 19.2284 2.0422 19.275 2.02114 19.0451C2.00101 18.8254 2 18.5158 2 18.0104H0ZM2 19.1315L0.40498 20.3381C0.757789 20.8045 1.29704 21.0931 1.8808 21.1279L2 19.1315ZM13.4484 10.5008C13.7982 10.734 14.0033 10.8719 14.141 10.983C14.2771 11.0927 14.2348 11.0906 14.1972 11L16.0447 10.2339C15.8908 9.86276 15.6234 9.60908 15.3965 9.42615C15.1713 9.24452 14.8756 9.04858 14.5578 8.83667L13.4484 10.5008ZM14.5578 13.1633C14.8756 12.9514 15.1713 12.7555 15.3965 12.5739C15.6234 12.3909 15.8908 12.1372 16.0447 11.7661L14.1972 11C14.2348 10.9094 14.2771 10.9073 14.141 11.017C14.0033 11.1281 13.7982 11.266 13.4484 11.4992L14.5578 13.1633ZM14.1972 11L16.0447 11.7661C16.2481 11.2756 16.2481 10.7244 16.0447 10.2339L14.1972 11ZM4.04222 1.8263C3.65472 1.56796 3.30682 1.33482 3.01305 1.17561C2.72818 1.02123 2.33717 0.844822 1.8808 0.872071L2 2.86852C1.87866 2.87576 1.85719 2.82402 2.06011 2.934C2.25412 3.03914 2.51226 3.21002 2.93282 3.4904L4.04222 1.8263ZM2 3.98963C2 3.48418 2.00101 3.1746 2.02114 2.95485C2.0422 2.72501 2.07333 2.77158 2 2.86852L0.40498 1.6619C0.129156 2.02652 0.0590457 2.44971 0.0294825 2.77237C-0.00100589 3.10512 0 3.52391 0 3.98963H2ZM1.8808 0.872071C1.29704 0.906926 0.757789 1.19553 0.40498 1.6619L2 2.86852V2.86852L1.8808 0.872071Z" fill="#F2F2F2"/>
</svg>
