<svg width="24" height="24" stroke-width="1.5" viewBox="0 0 24 24" fill="none" xmlns="http://www.w3.org/2000/svg" color="#000"><path d="M12 15a3 3 0 1 0 0-6 3 3 0 0 0 0 6Z" stroke="#000" stroke-linecap="round" stroke-linejoin="round"/><path d="m19.62 10.4-1.1-2.66L20 6l-2-2-1.74 1.48-2.7-1.11L12.94 2h-1.96l-.63 2.4L7.7 5.52 6 4 4 6l1.45 1.79-1.08 2.66L2 11v2l2.4.66 1.12 2.64L4 18l2 2 1.8-1.46 2.6 1.07L11 22h2l.6-2.39 2.66-1.1C16.7 18.84 18 20 18 20l2-2-1.48-1.75 1.1-2.65 2.38-.62V11l-2.38-.6Z" stroke="#000" stroke-linecap="round" stroke-linejoin="round"/></svg>
