<svg width="20" height="20" fill="none" xmlns="http://www.w3.org/2000/svg"><path opacity=".12" d="M2.45 9.95a3.57 3.57 0 0 1-.54-.6c-.09-.15-.16-.31-.2-.48-.04-.2-.04-.4-.04-.8V4.32c0-.93 0-1.4.18-1.75.16-.32.41-.57.73-.73.35-.18.82-.18 1.75-.18h3.73c.41 0 .61 0 .8.04.18.04.34.11.49.2.17.1.3.25.6.54l6.39 6.39c.99.99 1.48 1.48 1.67 2.05.16.5.16 1.05 0 1.55-.19.57-.68 1.07-1.67 2.06l-1.84 1.84c-1 .99-1.49 1.48-2.06 1.67a2.5 2.5 0 0 1-1.55 0c-.57-.19-1.06-.68-2.05-1.67l-6.4-6.4Z" fill="#50AF62"/><path d="M1.67 4.33h-1 1Zm.18-1.75.89.45-.9-.45Zm2.48-.91v-1 1Zm-1.75.18.45.89-.45-.9ZM14.5 16.34l-.71-.7.7.7ZM12.44 18l.3.95-.3-.95Zm-3.6-1.67.7-.7-.7.7ZM10.89 18l-.3.95.3-.95Zm5.45-9.17-.7.7.7-.7ZM18 10.89l.95-.3-.95.3Zm-1.67 3.6.7.71-.7-.7ZM18 12.45l.95.3-.95-.3Zm-8.06-10 .7-.7-.7.7Zm-.6-.53-.53.85.53-.85Zm-1.29-.24v1-1Zm.8.04L9.1.74l-.23.97ZM2.46 9.95l-.7.7.7-.7Zm-.54-.6-.85.52.85-.52Zm-.24-1.29h1-1Zm.04.8.98-.23-.98.24Zm4.96-3.2a1 1 0 1 0 0 2v-2Zm0 2a1 1 0 0 0 0-2v2Zm2.57-4.5 6.4 6.39 1.4-1.42-6.39-6.39-1.4 1.41Zm6.4 10.63-1.85 1.84 1.41 1.42 1.85-1.85-1.42-1.41Zm-6.1 1.84L3.16 9.24l-1.4 1.41 6.38 6.4 1.42-1.42ZM2.68 8.06V4.33h-2v3.73h2Zm1.66-5.4h3.73v-2H4.33v2ZM2.67 4.34c0-.48 0-.78.02-1.01a.82.82 0 0 1 .05-.29l-1.78-.9c-.18.34-.24.69-.27 1.03-.02.33-.02.72-.02 1.17h2ZM4.33.67c-.45 0-.84 0-1.17.02-.34.03-.7.1-1.04.27l.91 1.78c.01 0 .07-.04.29-.05.23-.02.53-.02 1.01-.02v-2Zm-1.6 2.36a.67.67 0 0 1 .3-.3L2.13.97c-.5.25-.92.66-1.17 1.16l1.78.91Zm11.06 12.6c-.5.5-.85.84-1.13 1.08-.27.23-.42.31-.53.35l.62 1.9c.46-.15.84-.41 1.2-.72.36-.3.77-.71 1.25-1.2l-1.41-1.4Zm-5.66 1.42c.48.48.89.88 1.25 1.19.36.3.74.57 1.2.72l.62-1.9a1.65 1.65 0 0 1-.53-.35 21.4 21.4 0 0 1-1.12-1.08l-1.42 1.42Zm4 0c-.3.1-.63.1-.93 0l-.61 1.91c.7.23 1.46.23 2.16 0l-.62-1.9Zm3.5-7.5c.5.5.84.84 1.08 1.12.23.27.31.42.35.53l1.9-.61a3.57 3.57 0 0 0-.72-1.21c-.3-.36-.71-.77-1.2-1.25l-1.4 1.42Zm1.42 5.65c.48-.48.88-.89 1.19-1.24.3-.37.57-.75.72-1.21l-1.9-.62c-.04.11-.12.26-.35.53-.24.28-.57.62-1.08 1.13l1.42 1.41Zm0-4c.1.3.1.63 0 .93l1.91.62a3.5 3.5 0 0 0 0-2.16l-1.9.61Zm-6.4-9.46c-.25-.25-.49-.5-.78-.68l-1.05 1.7c.05.03.1.07.42.4l1.41-1.42Zm-2.59.93c.46 0 .52 0 .57.02L9.1.74C8.77.66 8.42.67 8.06.67v2Zm1.81-1.61C9.63.91 9.37.81 9.1.74l-.47 1.95c.07.01.13.04.2.07l1.04-1.7ZM3.15 9.24a3.1 3.1 0 0 1-.39-.42l-1.7 1.05c.18.3.43.53.68.78l1.41-1.4ZM.67 8.06c0 .36-.01.7.07 1.04l1.95-.47a3.1 3.1 0 0 1-.02-.57h-2Zm2.1.76a.67.67 0 0 1-.08-.19L.74 9.1c.07.27.17.53.32.77l1.7-1.05Zm3.9-1.15v-2 2Zm-.59-1c0-.33.26-.59.59-.59v2c.78 0 1.41-.63 1.41-1.41h-2Zm.59-.59c.32 0 .58.26.58.59h-2c0 .78.63 1.41 1.42 1.41v-2Zm.58.59c0 .32-.26.58-.58.58v-2c-.79 0-1.42.63-1.42 1.42h2Zm-.58.58a.58.58 0 0 1-.59-.58h2c0-.79-.63-1.42-1.41-1.42v2Z" fill="#50AF62"/></svg>
