<svg width="192" height="40" fill="none" xmlns="http://www.w3.org/2000/svg">
  <rect width="192" height="40" rx="8" fill="#50AF62"/>
  <path d="M37.2 25.1a1 1 0 0 1-.8-.3 1 1 0 0 1-.2-.7v-9.4c0-.3 0-.6.2-.8.2-.2.5-.3.8-.3a1 1 0 0 1 1 1v9.5c0 .3 0 .5-.3.7a1 1 0 0 1-.7.3ZM45 17c1 0 1.7.3 2.1.8.5.5.7 1.3.7 2.4v4c0 .2 0 .5-.3.6a1 1 0 0 1-.7.3 1 1 0 0 1-.7-.3 1 1 0 0 1-.3-.7v-3.8c0-.6-.1-1-.3-1.3-.3-.3-.6-.4-1.1-.4-.6 0-1 .1-1.4.5a2 2 0 0 0-.5 1.5V24c0 .3-.1.6-.3.7a1 1 0 0 1-.7.3 1 1 0 0 1-.8-.3 1 1 0 0 1-.2-.7V18c0-.2 0-.5.3-.6.1-.2.4-.3.7-.3.3 0 .5.1.7.3.2.1.2.3.2.6v.4l1.1-1L45 17Zm10.3.6c0-.2.2-.3.3-.4l.5-.2c.3 0 .5.1.7.3.2.1.3.3.3.6l-.1.4-3 6.2a1 1 0 0 1-.4.4 1 1 0 0 1-.6.2c-.2 0-.4 0-.6-.2a1 1 0 0 1-.4-.4l-3-6.2v-.4c0-.2 0-.5.3-.6.2-.2.4-.3.7-.3.4 0 .7.2.8.6l2.3 5 2.2-5Zm4.2 7.5a1 1 0 0 1-.7-.2 1 1 0 0 1-.3-.8V18c0-.3.1-.6.3-.7.2-.2.4-.3.7-.3.3 0 .6.1.8.3l.2.7V24c0 .3 0 .6-.2.8a1 1 0 0 1-.8.2Zm0-9.5c-.3 0-.6-.1-.8-.3a1 1 0 0 1-.4-.8c0-.3.2-.6.4-.7.2-.2.5-.3.8-.3.4 0 .7 0 .9.3.2.1.3.4.3.7 0 .3 0 .6-.3.8-.2.2-.5.3-.9.3Zm7.5 8c.5 0 .8.3.8.7 0 .3-.1.5-.3.6l-.9.2h-.4c-1.8-.2-2.7-1.1-2.7-3v-3.4h-.8a1 1 0 0 1-.7-.2l-.2-.6c0-.2 0-.4.2-.5.2-.2.4-.2.7-.2h.8v-1.5c0-.3 0-.5.3-.7.1-.2.4-.2.7-.2.3 0 .5 0 .7.2.2.2.3.4.3.7v1.5h1.4c.2 0 .5 0 .6.2.2.1.2.3.2.5 0 .3 0 .5-.2.6l-.6.2h-1.4v3.6c0 .8.4 1.2 1 1.3h.5Zm5.2-6.6c1.1 0 2 .3 2.5.8s.8 1.3.8 2.4v4c0 .2-.1.5-.3.6a1 1 0 0 1-.7.3 1 1 0 0 1-.7-.3 1 1 0 0 1-.2-.6v-.4a2 2 0 0 1-1 1c-.3.2-.7.3-1.3.3-.5 0-1 0-1.4-.3-.4-.2-.7-.5-1-.9-.2-.3-.4-.8-.4-1.2 0-.6.2-1 .5-1.4.3-.3.8-.6 1.4-.7a13 13 0 0 1 2.8-.2h.4V20c0-.5-.2-.9-.4-1.1-.2-.3-.6-.4-1-.4l-1 .1a11 11 0 0 0-1.8.6c-.1 0-.3 0-.4-.2a.8.8 0 0 1-.2-.5l.1-.5.5-.4 1.3-.4a7 7 0 0 1 1.5-.2Zm-.5 6.7c.6 0 1-.2 1.3-.5.4-.4.6-.9.6-1.4v-.4h-.3l-1.7.1c-.4 0-.7.2-.8.4-.2.1-.3.3-.3.6 0 .4.1.6.4.9.2.2.5.3.8.3Zm15-6.7c1 0 1.6.2 2 .8.5.5.7 1.3.7 2.4v4c0 .2 0 .5-.3.7a1 1 0 0 1-.7.2 1 1 0 0 1-.7-.2 1 1 0 0 1-.3-.8v-3.9c0-.6 0-1-.3-1.2-.2-.3-.5-.4-1-.4s-.9.1-1.2.5c-.3.4-.4.8-.4 1.5V24c0 .3-.1.6-.3.8a1 1 0 0 1-.7.2 1 1 0 0 1-.8-.2 1 1 0 0 1-.2-.8v-3.9c0-.6-.2-1-.4-1.2-.2-.3-.5-.4-1-.4-.4 0-.8.1-1.2.5-.3.4-.4.8-.4 1.5V24c0 .3-.1.6-.3.8a1 1 0 0 1-.7.2 1 1 0 0 1-.7-.2 1 1 0 0 1-.3-.8V18c0-.3 0-.5.3-.6.2-.2.4-.3.7-.3.3 0 .5.1.7.3.2.1.2.3.2.6v.4c.3-.4.6-.8 1-1a3 3 0 0 1 1.4-.3c1.2 0 2 .5 2.4 1.5.2-.5.6-.8 1-1.1a3 3 0 0 1 1.6-.4Zm11 5.9c.1 0 .3 0 .4.2l.2.5c0 .4-.2.6-.6.9a5.6 5.6 0 0 1-2.6.6 4 4 0 0 1-3-1 4 4 0 0 1-1-3c0-.8 0-1.5.4-2.2a3.9 3.9 0 0 1 3.3-2c.7 0 1.4.2 1.9.5.5.4 1 .8 1.2 1.4.3.5.4 1.2.4 2 0 .4-.2.6-.6.6H93c0 .8.3 1.3.6 1.7.4.3.9.5 1.6.5l.9-.1.8-.4.8-.2Zm-2.8-4.5c-.6 0-1 .2-1.3.5-.3.3-.5.8-.6 1.5h3.6c0-.7-.2-1.2-.5-1.5-.3-.3-.7-.5-1.2-.5Zm15.6-1.4c.3 0 .5.1.7.3.2.1.3.4.3.7v6.2c0 .2-.1.5-.3.6a1 1 0 0 1-.7.3 1 1 0 0 1-.7-.2.9.9 0 0 1-.3-.7v-.4a2.6 2.6 0 0 1-2.4 1.3c-1.9 0-2.8-1-2.8-3.2v-4c0-.2 0-.5.2-.6.2-.2.5-.3.8-.3.3 0 .5.1.7.3.2.1.3.4.3.7v4c0 .5 0 .9.3 1.1.2.3.6.4 1 .4.6 0 1-.1 1.4-.5.3-.4.5-.9.5-1.5V18c0-.3 0-.6.3-.7.1-.2.4-.3.7-.3Zm7.6 0c1 0 1.7.3 2.1.8.5.5.7 1.3.7 2.4v4c0 .2 0 .5-.3.6a1 1 0 0 1-.7.3 1 1 0 0 1-.7-.3 1 1 0 0 1-.3-.7v-3.8c0-.6-.1-1-.4-1.3-.2-.3-.5-.4-1-.4-.6 0-1 .1-1.4.5a2 2 0 0 0-.5 1.5V24c0 .3-.1.6-.3.7a1 1 0 0 1-.7.3 1 1 0 0 1-.8-.3 1 1 0 0 1-.2-.7V18c0-.2 0-.5.2-.6.2-.2.5-.3.8-.3.3 0 .5.1.7.3l.2.6v.4l1-1c.5-.2 1-.3 1.6-.3Zm14.4 8.1c-1.1 0-2-.2-2.9-.7a4.7 4.7 0 0 1-1.8-2c-.5-.9-.7-1.9-.7-3 0-1.2.2-2.2.7-3.1.4-.9 1-1.6 1.8-2 .8-.5 1.8-.7 2.9-.7a6 6 0 0 1 3.6 1.2l.3.3v.5l-.1.6-.5.2c-.2 0-.4 0-.6-.2-.5-.4-1-.6-1.3-.7a4 4 0 0 0-1.3-.2c-1.1 0-2 .3-2.5 1-.6.7-.9 1.7-.9 3 0 1.4.3 2.4.9 3.1.5.7 1.4 1 2.5 1l1.3-.1a6 6 0 0 0 1.3-.7l.3-.2h.3c.2 0 .4 0 .5.2l.2.6v.4l-.4.3-1.6 1-2 .2Zm8.9-8.1c1 0 1.8.3 2.4.8.5.5.8 1.3.8 2.4v4c0 .2-.1.5-.3.6a1 1 0 0 1-.7.3 1 1 0 0 1-.7-.3 1 1 0 0 1-.2-.6v-.4a2 2 0 0 1-.9 1 3.1 3.1 0 0 1-2.8 0c-.4-.2-.7-.5-1-.9-.2-.3-.3-.8-.3-1.2 0-.6.1-1 .4-1.4.3-.3.8-.6 1.4-.7a13 13 0 0 1 2.8-.2h.4V20c0-.5-.1-.9-.4-1.1-.2-.3-.6-.4-1-.4l-1 .1a11 11 0 0 0-1.7.6c-.2 0-.4 0-.5-.2a.8.8 0 0 1-.2-.5l.1-.5.5-.4 1.3-.4a7 7 0 0 1 1.6-.2Zm-.5 6.7c.5 0 1-.2 1.3-.5.3-.4.5-.9.5-1.4v-.4h-.3l-1.7.1c-.4 0-.7.2-.8.4-.2.1-.3.3-.3.6 0 .4.1.6.4.9.2.2.5.3.9.3Zm9.7-8.5c-.5 0-.9.2-1.1.5-.2.2-.4.6-.4 1.1v.4h1.4c.6 0 .9.2.9.7 0 .5-.3.8-.9.8h-1.4V24c0 .3 0 .6-.2.7a1 1 0 0 1-.7.3 1 1 0 0 1-.8-.3c-.2-.1-.3-.4-.3-.7v-5.4h-.8c-.6 0-.9-.3-.9-.8s.3-.7 1-.7h.7V17c0-1 .3-1.8.8-2.4.6-.6 1.3-.9 2.3-1h.4l.9.1.3.6c0 .5-.3.7-.8.8h-.4Zm7.9 7.7c.1 0 .3 0 .4.2l.2.5c0 .4-.2.6-.6.9a5.6 5.6 0 0 1-2.6.6 4 4 0 0 1-3-1 4 4 0 0 1-1-3c0-.8 0-1.5.4-2.2a3.9 3.9 0 0 1 3.3-2c.7 0 1.4.2 1.9.5.5.4.9.8 1.2 1.4.3.5.4 1.2.4 2 0 .4-.2.6-.6.6h-4.7c0 .8.3 1.3.6 1.7.4.3.9.5 1.6.5l.9-.1.8-.4.8-.2Zm-2.8-4.5c-.6 0-1 .2-1.3.5-.3.3-.5.8-.6 1.5h3.6c0-.7-.2-1.2-.5-1.5-.3-.3-.7-.5-1.2-.5Zm8.5 6.7c-.7 0-1.4-.1-2-.5-.6-.3-1-.8-1.4-1.4-.3-.6-.5-1.3-.5-2.1s.2-1.5.5-2.1c.4-.7.8-1.2 1.4-1.5a4.6 4.6 0 0 1 4.5.1c.4.3.5.5.5.9 0 .2 0 .4-.2.6l-.4.2a1 1 0 0 1-.4-.1l-.3-.2-.7-.3a2 2 0 0 0-.7-.1c-.7 0-1.2.2-1.6.6-.3.4-.5 1-.5 1.9 0 .8.2 1.4.5 1.8.4.4.9.7 1.6.7.2 0 .5 0 .7-.2a6.8 6.8 0 0 0 1-.5h.4l.5.1.1.6v.5l-.5.3a4.4 4.4 0 0 1-2.5.7Zm5.4 0a1 1 0 0 1-.8-.2 1 1 0 0 1-.2-.8V18c0-.3 0-.6.2-.7.2-.2.5-.3.8-.3.3 0 .5.1.7.3.2.1.3.4.3.7V24c0 .3-.1.6-.3.8a1 1 0 0 1-.7.2Zm0-9.5c-.4 0-.7-.1-.9-.3a1 1 0 0 1-.3-.8c0-.3 0-.6.3-.7.2-.2.5-.3.9-.3.3 0 .6 0 .8.3.2.1.3.4.3.7 0 .3 0 .6-.3.8-.2.2-.5.3-.8.3Zm7.4 8c.6 0 .8.3.8.7 0 .3 0 .5-.3.6l-.9.2h-.4c-1.8-.2-2.7-1.1-2.7-3v-3.4h-.8a1 1 0 0 1-.6-.2c-.2-.1-.3-.3-.3-.6 0-.2.1-.4.3-.5.1-.2.3-.2.6-.2h.8v-1.5c0-.3.1-.5.3-.7.2-.2.4-.2.7-.2.3 0 .6 0 .8.2l.2.7v1.5h1.4c.3 0 .5 0 .6.2.2.1.3.3.3.5 0 .3-.1.5-.3.6l-.6.2h-1.4v3.6c0 .8.4 1.2 1.1 1.3h.4Zm5.5 1.5c-.8 0-1.6-.1-2.2-.5-.6-.3-1-.8-1.4-1.4-.3-.6-.4-1.3-.4-2.2 0-.8.1-1.5.4-2.1.4-.6.8-1 1.4-1.4.6-.4 1.4-.5 2.2-.5.8 0 1.4.1 2 .5.7.3 1.1.8 1.4 1.4.4.6.5 1.3.5 2.1 0 .9-.1 1.6-.5 2.2-.3.6-.7 1.1-1.4 1.4-.6.4-1.2.5-2 .5Zm0-1.5c.6 0 1-.2 1.4-.7.4-.4.5-1 .5-1.9a3 3 0 0 0-.5-1.8c-.3-.5-.8-.7-1.4-.7-.7 0-1.2.2-1.5.7-.4.4-.5 1-.5 1.8 0 .9.1 1.5.5 2 .3.4.8.6 1.4.6Z" fill="#fff"/><path fill-rule="evenodd" clip-rule="evenodd" d="M25.6 8H12.5a5.8 5.8 0 0 0-5.8 5.8v2.5a4.5 4.5 0 0 0 0 8.2V27c0 3.2 2.6 5.8 5.8 5.8h13.1c3.2 0 5.9-2.6 5.9-5.8V13.8c0-3.2-2.7-5.8-5.9-5.8Zm-1 16.3a6.8 6.8 0 1 0-1.8 1.8l3 1-1.1-2.8Zm-14.3-7.5A9.5 9.5 0 1 1 26.8 26l-.6-1.5c.7-1.2 1-2.6 1-4a8.2 8.2 0 1 0-4.2 7l1.6.7a9.5 9.5 0 0 1-14.3-4.3H8.8a3.6 3.6 0 0 1 0-7h1.5Zm-1.6 5.7h1.1a9.6 9.6 0 0 1 0-4.2H8.7a2.1 2.1 0 0 0 0 4.2Z" fill="#fff"/>
</svg>
