<svg xmlns="http://www.w3.org/2000/svg" width='192px' height='192px' xmlns:xlink="http://www.w3.org/1999/xlink" x="0px" y="0px" viewBox="0 0 512.001 512.001" fill="#ffffff">
	<path d="M511.937,484.574l-25.609-358.4c-0.956-13.397-12.1-23.774-25.532-23.774h-102.4c0-56.559-45.841-102.4-102.4-102.4    c-56.559,0-102.4,45.841-102.4,102.4h-102.4c-13.431,0-24.576,10.377-25.532,23.774l-25.6,358.4    c-0.503,7.091,1.954,14.071,6.801,19.268C11.704,509.048,18.488,512,25.596,512h460.8c7.108,0,13.892-2.953,18.739-8.158    C509.974,498.646,512.44,491.666,511.937,484.574z M345.596,179.201c7.057,0,12.8,5.743,12.8,12.8s-5.743,12.8-12.8,12.8    s-12.8-5.743-12.8-12.8S338.539,179.201,345.596,179.201z M255.996,25.6c42.351,0,76.8,34.449,76.8,76.8h-153.6    C179.196,60.05,213.645,25.6,255.996,25.6z M166.396,179.201c7.057,0,12.8,5.743,12.8,12.8s-5.743,12.8-12.8,12.8    s-12.8-5.743-12.8-12.8S159.339,179.201,166.396,179.201z M25.596,486.401l25.6-358.4h102.4v27.947    c-14.882,5.291-25.6,19.354-25.6,36.053c0,21.205,17.195,38.4,38.4,38.4c21.205,0,38.4-17.195,38.4-38.4    c0-16.691-10.718-30.763-25.6-36.053v-27.947h153.6v27.947c-14.882,5.291-25.6,19.354-25.6,36.053c0,21.205,17.195,38.4,38.4,38.4    c21.205,0,38.4-17.195,38.4-38.4c0-16.691-10.718-30.763-25.6-36.053v-27.947h102.4l25.6,358.4H25.596z"/>
</svg>
