<svg viewBox="0 0 35 35" width="45" height="45" fill="none" xmlns="http://www.w3.org/2000/svg"><path fill-rule="evenodd" clip-rule="evenodd" d="M16.5 0a16 16 0 100 32 16 16 0 000-32zm-.4 13.6V13c-.2-1.4.7-2.7 2.1-3.2.5-.2 1.4-.3 2 0l1 .4.5.4.6-.2 1-.4.3-.1c0 .2-.4.8-.8 1.2-.4.5-.3.5.7.2.5-.2.5-.2.4 0l-.8.9c-.6.6-.6.7-.6 1.2a9.8 9.8 0 01-4.5 7.8 9.5 9.5 0 01-9.5-.2h1c1-.1 2-.4 3-1l.5-.3-.7-.2c-1-.3-1.8-1.1-2-1.9-.1-.2-.1-.2.5-.2h.7l-.6-.3c-.6-.3-1.2-.9-1.5-1.4a4 4 0 01-.4-1.5h.5c.8.4.9.3.4-.2a3.3 3.3 0 01-.7-3.3l.2-.6.8.8a9.1 9.1 0 005.3 2.6h.6z" fill="#ffffff"></path></svg>
