<svg aria-hidden="true" width="28" height="28" fill="none" viewBox="0 0 38 38" xmlns="http://www.w3.org/2000/svg">
  <path fill-rule="evenodd" clip-rule="evenodd" d="M24.02 10.93c-.02.01-.03.03-.03.06l.02.05c3.68 4.38 10.81 14.83 9.42 19.14-.01.04-.01.08.02.1.03.01.07 0 .1-.04A18.23 18.23 0 0 0 31.8 6.12c-.3-.15-2.2-.74-7.78 4.8ZM6.2 6.13a18.23 18.23 0 0 0-1.75 24.12c.02.02.07.04.1.02.03-.01.03-.05.02-.09-1.4-4.31 5.73-14.76 9.41-19.14.02-.01.03-.03.03-.05 0-.03-.01-.05-.03-.06C8.4 5.38 6.5 5.97 6.2 6.13Zm22.33-2.57A18.04 18.04 0 0 0 19 .88c-3.7 0-6.73 1.01-9.53 2.68a.07.07 0 0 0-.03.09c.02.03.06.04.1.03 3.53-.77 8.91 2.3 9.42 2.6l.04.01.04-.01c.5-.3 5.89-3.37 9.43-2.6.03 0 .07 0 .09-.03a.07.07 0 0 0-.03-.1ZM19 15.55c.02 0 .05.01.06.03 5.47 4.16 14.83 14.45 11.98 17.35A18.21 18.21 0 0 1 19 37.45c-4.61 0-8.82-1.7-12.04-4.52-2.85-2.9 6.51-13.2 11.98-17.35.01-.02.04-.03.06-.03Z" fill="#50AF62"/>
</svg>
